<svg width="46" height="46" viewBox="0 0 46 46" fill="none" xmlns="http://www.w3.org/2000/svg">
<path d="M23.0498 3.8335C13.6714 3.83229 5.67681 10.6338 4.17526 19.8912C2.67372 29.1486 8.10864 38.1284 17.0066 41.0916C17.9649 41.2641 18.308 40.6757 18.308 40.1697C18.308 39.7154 18.2927 38.5117 18.2869 36.9113C12.9682 38.0613 11.845 34.3468 11.845 34.3468C11.4949 33.191 10.7421 32.1989 9.72325 31.5504C7.99825 30.364 9.8555 30.3908 9.8555 30.3908C11.0835 30.5592 12.1642 31.2868 12.7822 32.3612C13.3054 33.3123 14.1867 34.0152 15.2304 34.3135C16.2741 34.6119 17.3938 34.481 18.3406 33.9501C18.4296 32.9803 18.861 32.0738 19.5577 31.3932C15.3142 30.9122 10.8522 29.2715 10.8522 21.9441C10.8286 20.0489 11.5324 18.2167 12.8187 16.8247C12.2367 15.175 12.3052 13.3656 13.0103 11.7647C13.0103 11.7647 14.6146 11.2491 18.2658 13.7216C21.3974 12.8629 24.7023 12.8629 27.8338 13.7216C31.487 11.2472 33.0893 11.7647 33.0893 11.7647C33.7977 13.3648 33.8663 15.1755 33.281 16.8247C34.572 18.2166 35.2752 20.0536 35.2437 21.9517C35.2437 29.2983 30.7778 30.9122 26.519 31.3856C27.4377 32.3249 27.9089 33.6134 27.8127 34.9237C27.8127 37.4806 27.7897 39.5429 27.7897 40.1697C27.7897 40.6814 28.1309 41.2756 29.1065 41.0877C38.0007 38.1195 43.4298 29.1392 41.9252 19.8843C40.4206 10.6293 32.4263 3.83135 23.0498 3.8335Z" fill="black"/>
</svg>
